<mxfile host="app.diagrams.net" modified="2022-03-12T09:34:12.037Z" agent="5.0 (Windows NT 10.0; Win64; x64) AppleWebKit/537.36 (KHTML, like Gecko) Chrome/99.0.4844.51 Safari/537.36" etag="QRuHOGyIccWoRkZsRZqV" version="17.1.2" type="github">
  <diagram id="-xV3gdgWsJfsMSvth9Gx" name="Page-1">
    <mxGraphModel dx="1104" dy="549" grid="1" gridSize="10" guides="1" tooltips="1" connect="1" arrows="1" fold="1" page="1" pageScale="1" pageWidth="827" pageHeight="1169" math="0" shadow="0">
      <root>
        <mxCell id="0" />
        <mxCell id="1" parent="0" />
        <mxCell id="HFsJBzbgONUlarqVw5Kh-5" value="User" style="swimlane;childLayout=stackLayout;horizontal=1;startSize=30;horizontalStack=0;rounded=1;fontSize=14;fontStyle=0;strokeWidth=2;resizeParent=0;resizeLast=1;shadow=0;dashed=0;align=center;" vertex="1" parent="1">
          <mxGeometry x="10" y="30" width="80" height="100" as="geometry" />
        </mxCell>
        <mxCell id="HFsJBzbgONUlarqVw5Kh-6" value="    id&#xa;    email&#xa;    password&#xa;    role" style="align=left;strokeColor=none;fillColor=none;spacingLeft=4;fontSize=12;verticalAlign=top;resizable=0;rotatable=0;part=1;" vertex="1" parent="HFsJBzbgONUlarqVw5Kh-5">
          <mxGeometry y="30" width="80" height="70" as="geometry" />
        </mxCell>
        <mxCell id="HFsJBzbgONUlarqVw5Kh-9" value="Basket" style="swimlane;childLayout=stackLayout;horizontal=1;startSize=30;horizontalStack=0;rounded=1;fontSize=14;fontStyle=0;strokeWidth=2;resizeParent=0;resizeLast=1;shadow=0;dashed=0;align=center;" vertex="1" parent="1">
          <mxGeometry x="150" y="40" width="80" height="70" as="geometry" />
        </mxCell>
        <mxCell id="HFsJBzbgONUlarqVw5Kh-10" value="    id&#xa;    user_id" style="align=left;strokeColor=none;fillColor=none;spacingLeft=4;fontSize=12;verticalAlign=top;resizable=0;rotatable=0;part=1;" vertex="1" parent="HFsJBzbgONUlarqVw5Kh-9">
          <mxGeometry y="30" width="80" height="40" as="geometry" />
        </mxCell>
        <mxCell id="HFsJBzbgONUlarqVw5Kh-12" value="Device" style="swimlane;childLayout=stackLayout;horizontal=1;startSize=30;horizontalStack=0;rounded=1;fontSize=14;fontStyle=0;strokeWidth=2;resizeParent=0;resizeLast=1;shadow=0;dashed=0;align=center;" vertex="1" parent="1">
          <mxGeometry x="500" y="20" width="80" height="140" as="geometry" />
        </mxCell>
        <mxCell id="HFsJBzbgONUlarqVw5Kh-13" value="    id&#xa;    name&#xa;    price&#xa;    rating&#xa;    image&#xa;    typeid&#xa;    brandid&#xa;    " style="align=left;strokeColor=none;fillColor=none;spacingLeft=4;fontSize=12;verticalAlign=top;resizable=0;rotatable=0;part=1;" vertex="1" parent="HFsJBzbgONUlarqVw5Kh-12">
          <mxGeometry y="30" width="80" height="110" as="geometry" />
        </mxCell>
        <mxCell id="HFsJBzbgONUlarqVw5Kh-15" value="Type" style="swimlane;childLayout=stackLayout;horizontal=1;startSize=30;horizontalStack=0;rounded=1;fontSize=14;fontStyle=0;strokeWidth=2;resizeParent=0;resizeLast=1;shadow=0;dashed=0;align=center;" vertex="1" parent="1">
          <mxGeometry x="440" y="200" width="80" height="70" as="geometry" />
        </mxCell>
        <mxCell id="HFsJBzbgONUlarqVw5Kh-16" value="    id&#xa;    name" style="align=left;strokeColor=none;fillColor=none;spacingLeft=4;fontSize=12;verticalAlign=top;resizable=0;rotatable=0;part=1;" vertex="1" parent="HFsJBzbgONUlarqVw5Kh-15">
          <mxGeometry y="30" width="80" height="40" as="geometry" />
        </mxCell>
        <mxCell id="HFsJBzbgONUlarqVw5Kh-17" value="Brand" style="swimlane;childLayout=stackLayout;horizontal=1;startSize=30;horizontalStack=0;rounded=1;fontSize=14;fontStyle=0;strokeWidth=2;resizeParent=0;resizeLast=1;shadow=0;dashed=0;align=center;" vertex="1" parent="1">
          <mxGeometry x="560" y="200" width="80" height="70" as="geometry" />
        </mxCell>
        <mxCell id="HFsJBzbgONUlarqVw5Kh-18" value="    id&#xa;    name" style="align=left;strokeColor=none;fillColor=none;spacingLeft=4;fontSize=12;verticalAlign=top;resizable=0;rotatable=0;part=1;" vertex="1" parent="HFsJBzbgONUlarqVw5Kh-17">
          <mxGeometry y="30" width="80" height="40" as="geometry" />
        </mxCell>
        <mxCell id="HFsJBzbgONUlarqVw5Kh-19" value="" style="edgeStyle=entityRelationEdgeStyle;fontSize=12;html=1;endArrow=ERmany;startArrow=ERmany;rounded=0;exitX=1;exitY=0.5;exitDx=0;exitDy=0;entryX=0.008;entryY=0.628;entryDx=0;entryDy=0;entryPerimeter=0;" edge="1" parent="1" source="HFsJBzbgONUlarqVw5Kh-16" target="HFsJBzbgONUlarqVw5Kh-18">
          <mxGeometry width="100" height="100" relative="1" as="geometry">
            <mxPoint x="350" y="450" as="sourcePoint" />
            <mxPoint x="450" y="350" as="targetPoint" />
          </mxGeometry>
        </mxCell>
        <mxCell id="HFsJBzbgONUlarqVw5Kh-20" value="" style="edgeStyle=entityRelationEdgeStyle;fontSize=12;html=1;endArrow=ERoneToMany;rounded=0;exitX=0.5;exitY=0;exitDx=0;exitDy=0;entryX=0.5;entryY=1;entryDx=0;entryDy=0;" edge="1" parent="1" source="HFsJBzbgONUlarqVw5Kh-17" target="HFsJBzbgONUlarqVw5Kh-13">
          <mxGeometry width="100" height="100" relative="1" as="geometry">
            <mxPoint x="460" y="200" as="sourcePoint" />
            <mxPoint x="560" y="100" as="targetPoint" />
          </mxGeometry>
        </mxCell>
        <mxCell id="HFsJBzbgONUlarqVw5Kh-22" value="" style="edgeStyle=entityRelationEdgeStyle;fontSize=12;html=1;endArrow=ERoneToMany;rounded=0;exitX=0.5;exitY=0;exitDx=0;exitDy=0;entryX=-0.007;entryY=0.793;entryDx=0;entryDy=0;entryPerimeter=0;" edge="1" parent="1" source="HFsJBzbgONUlarqVw5Kh-15" target="HFsJBzbgONUlarqVw5Kh-13">
          <mxGeometry width="100" height="100" relative="1" as="geometry">
            <mxPoint x="440" y="330" as="sourcePoint" />
            <mxPoint x="540" y="230" as="targetPoint" />
          </mxGeometry>
        </mxCell>
        <mxCell id="HFsJBzbgONUlarqVw5Kh-23" value="Device_info" style="swimlane;childLayout=stackLayout;horizontal=1;startSize=30;horizontalStack=0;rounded=1;fontSize=14;fontStyle=0;strokeWidth=2;resizeParent=0;resizeLast=1;shadow=0;dashed=0;align=center;" vertex="1" parent="1">
          <mxGeometry x="670" y="60" width="100" height="100" as="geometry" />
        </mxCell>
        <mxCell id="HFsJBzbgONUlarqVw5Kh-24" value="       id&#xa;       device_id&#xa;       title&#xa;       description" style="align=left;strokeColor=none;fillColor=none;spacingLeft=4;fontSize=12;verticalAlign=top;resizable=0;rotatable=0;part=1;" vertex="1" parent="HFsJBzbgONUlarqVw5Kh-23">
          <mxGeometry y="30" width="100" height="70" as="geometry" />
        </mxCell>
        <mxCell id="HFsJBzbgONUlarqVw5Kh-25" value="" style="edgeStyle=entityRelationEdgeStyle;fontSize=12;html=1;endArrow=ERoneToMany;rounded=0;exitX=1;exitY=0.25;exitDx=0;exitDy=0;entryX=0;entryY=0.5;entryDx=0;entryDy=0;" edge="1" parent="1" source="HFsJBzbgONUlarqVw5Kh-13" target="HFsJBzbgONUlarqVw5Kh-24">
          <mxGeometry width="100" height="100" relative="1" as="geometry">
            <mxPoint x="600" y="420" as="sourcePoint" />
            <mxPoint x="700" y="320" as="targetPoint" />
          </mxGeometry>
        </mxCell>
        <mxCell id="HFsJBzbgONUlarqVw5Kh-30" value="Basket_device" style="swimlane;childLayout=stackLayout;horizontal=1;startSize=30;horizontalStack=0;rounded=1;fontSize=14;fontStyle=0;strokeWidth=2;resizeParent=0;resizeLast=1;shadow=0;dashed=0;align=center;" vertex="1" parent="1">
          <mxGeometry x="280" y="40" width="100" height="90" as="geometry" />
        </mxCell>
        <mxCell id="HFsJBzbgONUlarqVw5Kh-31" value="    id&#xa;    device_id&#xa;    basket_id" style="align=left;strokeColor=none;fillColor=none;spacingLeft=4;fontSize=12;verticalAlign=top;resizable=0;rotatable=0;part=1;" vertex="1" parent="HFsJBzbgONUlarqVw5Kh-30">
          <mxGeometry y="30" width="100" height="60" as="geometry" />
        </mxCell>
        <mxCell id="HFsJBzbgONUlarqVw5Kh-32" value="" style="edgeStyle=entityRelationEdgeStyle;fontSize=12;html=1;endArrow=ERoneToMany;rounded=0;exitX=1;exitY=0.5;exitDx=0;exitDy=0;" edge="1" parent="1" source="HFsJBzbgONUlarqVw5Kh-10" target="HFsJBzbgONUlarqVw5Kh-31">
          <mxGeometry width="100" height="100" relative="1" as="geometry">
            <mxPoint x="110" y="380" as="sourcePoint" />
            <mxPoint x="280" y="90" as="targetPoint" />
          </mxGeometry>
        </mxCell>
        <mxCell id="HFsJBzbgONUlarqVw5Kh-34" value="Rating" style="swimlane;childLayout=stackLayout;horizontal=1;startSize=30;horizontalStack=0;rounded=1;fontSize=14;fontStyle=0;strokeWidth=2;resizeParent=0;resizeLast=1;shadow=0;dashed=0;align=center;" vertex="1" parent="1">
          <mxGeometry x="220" y="170" width="90" height="110" as="geometry" />
        </mxCell>
        <mxCell id="HFsJBzbgONUlarqVw5Kh-35" value="    id&#xa;    user_id&#xa;    device_id&#xa;    rate" style="align=left;strokeColor=none;fillColor=none;spacingLeft=4;fontSize=12;verticalAlign=top;resizable=0;rotatable=0;part=1;" vertex="1" parent="HFsJBzbgONUlarqVw5Kh-34">
          <mxGeometry y="30" width="90" height="80" as="geometry" />
        </mxCell>
        <mxCell id="HFsJBzbgONUlarqVw5Kh-36" value="" style="edgeStyle=entityRelationEdgeStyle;fontSize=12;html=1;endArrow=ERoneToMany;rounded=0;exitX=0.437;exitY=0.995;exitDx=0;exitDy=0;exitPerimeter=0;entryX=0.5;entryY=0;entryDx=0;entryDy=0;" edge="1" parent="1" source="HFsJBzbgONUlarqVw5Kh-6" target="HFsJBzbgONUlarqVw5Kh-34">
          <mxGeometry width="100" height="100" relative="1" as="geometry">
            <mxPoint x="40" y="280" as="sourcePoint" />
            <mxPoint x="140" y="180" as="targetPoint" />
          </mxGeometry>
        </mxCell>
        <mxCell id="HFsJBzbgONUlarqVw5Kh-37" value="" style="edgeStyle=entityRelationEdgeStyle;fontSize=12;html=1;endArrow=ERoneToMany;rounded=0;exitX=-0.024;exitY=0.548;exitDx=0;exitDy=0;exitPerimeter=0;entryX=0.99;entryY=0.418;entryDx=0;entryDy=0;entryPerimeter=0;" edge="1" parent="1" source="HFsJBzbgONUlarqVw5Kh-13" target="HFsJBzbgONUlarqVw5Kh-35">
          <mxGeometry width="100" height="100" relative="1" as="geometry">
            <mxPoint x="300" y="300" as="sourcePoint" />
            <mxPoint x="400" y="200" as="targetPoint" />
          </mxGeometry>
        </mxCell>
        <mxCell id="HFsJBzbgONUlarqVw5Kh-55" value="" style="edgeStyle=entityRelationEdgeStyle;fontSize=12;html=1;endArrow=ERmandOne;startArrow=ERmandOne;rounded=0;exitX=1;exitY=0.5;exitDx=0;exitDy=0;entryX=0;entryY=0.5;entryDx=0;entryDy=0;" edge="1" parent="1" source="HFsJBzbgONUlarqVw5Kh-6" target="HFsJBzbgONUlarqVw5Kh-10">
          <mxGeometry width="100" height="100" relative="1" as="geometry">
            <mxPoint x="135" y="470" as="sourcePoint" />
            <mxPoint x="235" y="370" as="targetPoint" />
          </mxGeometry>
        </mxCell>
        <mxCell id="HFsJBzbgONUlarqVw5Kh-57" value="" style="edgeStyle=entityRelationEdgeStyle;fontSize=12;html=1;endArrow=ERmandOne;startArrow=ERmandOne;rounded=0;exitX=1;exitY=0.5;exitDx=0;exitDy=0;entryX=-0.024;entryY=0.329;entryDx=0;entryDy=0;entryPerimeter=0;" edge="1" parent="1" source="HFsJBzbgONUlarqVw5Kh-31" target="HFsJBzbgONUlarqVw5Kh-13">
          <mxGeometry width="100" height="100" relative="1" as="geometry">
            <mxPoint x="430" y="160" as="sourcePoint" />
            <mxPoint x="530" y="60" as="targetPoint" />
          </mxGeometry>
        </mxCell>
      </root>
    </mxGraphModel>
  </diagram>
</mxfile>
